<?xml version="1.0" encoding="utf-8"?>
<!-- Generator: Adobe Illustrator 17.0.0, SVG Export Plug-In . SVG Version: 6.00 Build 0)  -->
<!DOCTYPE svg PUBLIC "-//W3C//DTD SVG 1.1//EN" "http://www.w3.org/Graphics/SVG/1.1/DTD/svg11.dtd">
<svg version="1.1" id="Layer_1" xmlns="http://www.w3.org/2000/svg" xmlns:xlink="http://www.w3.org/1999/xlink" x="0px" y="0px"
	 width="512px" height="512px" viewBox="0 0 512 512" enable-background="new 0 0 512 512" xml:space="preserve">
<g>
	<g>
		<path fill="#1A1A1A" d="M40.001,509.366c-20.604,0-37.366-16.761-37.366-37.365V40.001c0-20.604,16.762-37.366,37.366-37.366
			h432.001c20.604,0,37.365,16.762,37.365,37.366v432.001c0,20.604-16.761,37.365-37.365,37.365H40.001z"/>
		<path fill="#ED5922" d="M472.001,5.27c19.15,0,34.73,15.58,34.73,34.73V472c0,19.15-15.58,34.73-34.73,34.73H40
			c-19.15,0-34.73-15.58-34.73-34.73V40c0-19.15,15.58-34.73,34.73-34.73H472.001 M472.001,0H40C17.909,0,0,17.909,0,40V472
			c0,22.091,17.909,40,40,40H472c22.091,0,40-17.909,40-40V40C512.001,17.909,494.092,0,472.001,0L472.001,0z"/>
	</g>
	<circle fill="none" stroke="#ED5922" stroke-width="4" stroke-miterlimit="10" cx="145.878" cy="371.634" r="94.122"/>
	<path fill="none" stroke="#ED5922" stroke-width="4" stroke-miterlimit="10" d="M177.417,241.746h-50.228V96.91H81.792V55.838
		h140.893V96.91h-45.269v144.836H177.417z"/>
	<path fill="none" stroke="#ED5922" stroke-width="4" stroke-miterlimit="10" d="M423.216,148.537
		c0,31.281-7.673,55.06-23.016,71.336c-15.345,16.276-37.81,24.415-67.395,24.415c-29.163,0-51.522-8.18-67.076-24.542
		c-15.558-16.361-23.334-40.183-23.334-71.463c0-30.942,7.735-54.571,23.207-70.892c15.47-16.318,37.957-24.478,67.458-24.478
		c29.585,0,52.009,8.096,67.267,24.287C415.587,93.394,423.216,117.172,423.216,148.537z M295.294,148.537
		c0,35.944,12.503,53.916,37.512,53.916c12.716,0,22.146-4.365,28.293-13.098c6.146-8.73,9.219-22.336,9.219-40.818
		c0-18.565-3.115-32.276-9.346-41.136c-6.23-8.857-15.535-13.288-27.911-13.288C307.883,94.113,295.294,112.256,295.294,148.537z"/>
	<path fill="none" d="M92.352,277.772h55.187c25.601,0,44.103,3.731,55.506,11.19c11.401,7.461,17.103,19.244,17.103,35.351
		c0,10.852-2.797,19.88-8.393,27.085c-5.595,7.206-13.65,11.742-24.16,13.606v1.271c13.054,2.46,22.654,7.312,28.802,14.56
		c6.145,7.248,9.219,17.062,9.219,29.438c0,16.702-5.83,29.777-17.484,39.229c-11.657,9.454-27.87,14.179-48.638,14.179H92.353
		L92.352,277.772L92.352,277.772z M122.744,354.578h29.247c12.716,0,21.999-2.013,27.848-6.04
		c5.851-4.025,8.774-10.872,8.774-20.536c0-8.73-3.159-15.047-9.473-18.947c-6.316-3.898-16.341-5.85-30.074-5.85h-26.323
		L122.744,354.578L122.744,354.578z M122.744,379.247v58.875h32.3c12.716,0,22.316-2.437,28.801-7.312
		c6.485-4.873,9.728-12.566,9.728-23.08c0-9.664-3.306-16.827-9.918-21.49c-6.613-4.661-16.658-6.993-30.137-6.993H122.744
		L122.744,379.247z"/>
	<path fill="none" stroke="#ED5922" stroke-width="4" stroke-miterlimit="10" d="M424.101,463.681h-50.482v-75.787h-58.366v75.787
		H264.77V277.772h50.482v68.921h58.366v-68.921h50.482V463.681z"/>
	
		<text transform="matrix(1 0 0 1 183.9819 241.7451)" fill="none" stroke="#ED5922" stroke-width="4" stroke-miterlimit="10" font-family="'OpenSans-Extrabold'" font-size="117.2957">.</text>
	
		<text transform="matrix(1 0 0 1 401.646 241.7451)" fill="none" stroke="#ED5922" stroke-width="4" stroke-miterlimit="10" font-family="'OpenSans-Extrabold'" font-size="117.2957">.</text>
	<path id="symbol_1_" fill="#ED5922" d="M204.066,359.239c3.292-16.358-8.823-25.828-25.661-32.581l6.672-22.043l-13.397-4.044
		l-6.509,21.435c-3.525-1.058-7.152-2.079-10.749-3.1l6.54-21.59l-13.396-4.067l-6.672,22.036c-2.931-0.831-5.793-1.645-8.579-2.466
		l0.024-0.094l-18.492-5.587l-4.342,14.311c0,0,9.971,2.809,9.741,2.931c5.444,1.657,6.26,5.345,5.936,8.21l-7.6,25.121
		c0.379,0.109,0.87,0.272,1.405,0.501c-0.472-0.14-0.945-0.273-1.43-0.414l-10.663,35.147c-0.741,1.639-2.592,4.065-6.386,2.924
		c0.131,0.19-9.73-2.96-9.73-2.96l-7.52,15.2l17.442,5.288c3.239,0.98,6.429,2,9.559,2.97l-6.735,22.289l13.368,4.064l6.699-22.036
		c3.641,1.181,7.211,2.288,10.671,3.347l-6.652,21.921l13.395,4.07l6.76-22.234c22.938,5.542,40.433,4.623,48.8-15.931
		c6.745-16.57,1.04-26.605-10.836-33.565C194.713,376.704,201.675,371.204,204.066,359.239L204.066,359.239z M170.879,401.171
		c-5.054,16.679-32.967,6.125-42.058,3.388l8.951-29.522C146.858,377.801,176.139,383.819,170.879,401.171z M177.264,357.653
		c-4.606,15.136-27.85,6.177-35.416,3.874l8.11-26.772C157.525,337.062,182.041,341.841,177.264,357.653z"/>
</g>
</svg>
